<svg width="1270" height="300" xmlns="http://www.w3.org/2000/svg"><g><path d="M-30,-11L-42,122L-19,68Z" fill="#18c58b" stroke="#18c58b"/><path d="M-30,-11L-19,68L-18,17Z" fill="#0adf7a" stroke="#0adf7a"/><path d="M-30,-11L-18,17L10,-28Z" fill="#00f06b" stroke="#00f06b"/><path d="M10,-28L-18,17L19,29Z" fill="#03e973" stroke="#03e973"/><path d="M10,-28L19,29L73,17Z" fill="#05e476" stroke="#05e476"/><path d="M10,-28L73,17L88,-37Z" fill="#05e56d" stroke="#05e56d"/><path d="M88,-37L73,17L133,-20Z" fill="#08df73" stroke="#08df73"/><path d="M88,-37L133,-20L158,-22Z" fill="#0ada6f" stroke="#0ada6f"/><path d="M88,-37L158,-22L216,-35Z" fill="#0dd66f" stroke="#0dd66f"/><path d="M88,-37L216,-35L334,-39Z" fill="#11cc72" stroke="#11cc72"/><path d="M133,-20L73,17L109,39Z" fill="#0ed480" stroke="#0ed480"/><path d="M133,-20L109,39L176,29Z" fill="#12cb86" stroke="#12cb86"/><path d="M133,-20L176,29L158,-22Z" fill="#0dd57d" stroke="#0dd57d"/><path d="M158,-22L176,29L216,-35Z" fill="#0fd17d" stroke="#0fd17d"/><path d="M216,-35L176,29L214,36Z" fill="#14c689" stroke="#14c689"/><path d="M216,-35L214,36L286,33Z" fill="#18bf8e" stroke="#18bf8e"/><path d="M216,-35L286,33L294,-35Z" fill="#16c484" stroke="#16c484"/><path d="M216,-35L294,-35L334,-39Z" fill="#17c179" stroke="#17c179"/><path d="M294,-35L286,33L320,26Z" fill="#1bb892" stroke="#1bb892"/><path d="M294,-35L320,26L334,-39Z" fill="#1abb87" stroke="#1abb87"/><path d="M334,-39L320,26L375,23Z" fill="#1db594" stroke="#1db594"/><path d="M334,-39L375,23L370,-34Z" fill="#1db48b" stroke="#1db48b"/><path d="M334,-39L370,-34L439,-29Z" fill="#1fb185" stroke="#1fb185"/><path d="M334,-39L439,-29L525,-28Z" fill="#24a989" stroke="#24a989"/><path d="M334,-39L525,-28L727,-41Z" fill="#35a07b" stroke="#35a07b"/><path d="M370,-34L375,23L439,-29Z" fill="#20af90" stroke="#20af90"/><path d="M439,-29L375,23L430,32Z" fill="#25a59e" stroke="#25a59e"/><path d="M439,-29L430,32L457,-9Z" fill="#26a897" stroke="#26a897"/><path d="M439,-29L457,-9L525,-28Z" fill="#2ba589" stroke="#2ba589"/><path d="M457,-9L430,32L471,38Z" fill="#3098a1" stroke="#3098a1"/><path d="M457,-9L471,38L515,17Z" fill="#33989b" stroke="#33989b"/><path d="M457,-9L515,17L525,-28Z" fill="#30a38e" stroke="#30a38e"/><path d="M525,-28L515,17L562,-10Z" fill="#369f89" stroke="#369f89"/><path d="M525,-28L562,-10L640,-30Z" fill="#3e9b7c" stroke="#3e9b7c"/><path d="M525,-28L640,-30L727,-41Z" fill="#489570" stroke="#489570"/><path d="M562,-10L515,17L594,29Z" fill="#3f9490" stroke="#3f9490"/><path d="M562,-10L594,29L640,-30Z" fill="#429983" stroke="#429983"/><path d="M640,-30L594,29L629,22Z" fill="#499186" stroke="#499186"/><path d="M640,-30L629,22L670,7Z" fill="#4b947f" stroke="#4b947f"/><path d="M640,-30L670,7L685,-33Z" fill="#4e9274" stroke="#4e9274"/><path d="M640,-30L685,-33L727,-41Z" fill="#519069" stroke="#519069"/><path d="M685,-33L670,7L731,22Z" fill="#538f79" stroke="#538f79"/><path d="M685,-33L731,22L727,-41Z" fill="#578d6e" stroke="#578d6e"/><path d="M727,-41L731,22L770,-31Z" fill="#5c8a6b" stroke="#5c8a6b"/><path d="M727,-41L770,-31L872,-21Z" fill="#64855e" stroke="#64855e"/><path d="M727,-41L872,-21L1038,-42Z" fill="#758052" stroke="#758052"/><path d="M770,-31L731,22L793,38Z" fill="#648076" stroke="#648076"/><path d="M770,-31L793,38L814,7Z" fill="#678270" stroke="#678270"/><path d="M770,-31L814,7L830,-7Z" fill="#678467" stroke="#678467"/><path d="M770,-31L830,-7L872,-21Z" fill="#6b8260" stroke="#6b8260"/><path d="M830,-7L814,7L869,70Z" fill="#776f74" stroke="#776f74"/><path d="M830,-7L869,70L894,12Z" fill="#7c6d72" stroke="#7c6d72"/><path d="M830,-7L894,12L872,-21Z" fill="#728063" stroke="#728063"/><path d="M872,-21L894,12L914,-17Z" fill="#77805d" stroke="#77805d"/><path d="M872,-21L914,-17L987,-26Z" fill="#7d8053" stroke="#7d8053"/><path d="M872,-21L987,-26L1038,-42Z" fill="#80804a" stroke="#80804a"/><path d="M914,-17L894,12L936,43Z" fill="#807666" stroke="#807666"/><path d="M914,-17L936,43L963,19Z" fill="#857464" stroke="#857464"/><path d="M914,-17L963,19L987,-26Z" fill="#808056" stroke="#808056"/><path d="M987,-26L963,19L1040,44Z" fill="#85765c" stroke="#85765c"/><path d="M987,-26L1040,44L1038,-42Z" fill="#80804e" stroke="#80804e"/><path d="M1038,-42L1040,44L1055,-35Z" fill="#80804a" stroke="#80804a"/><path d="M1038,-42L1055,-35L1118,-28Z" fill="#80803a" stroke="#80803a"/><path d="M1038,-42L1118,-28L1319,-38Z" fill="#80802f" stroke="#80802f"/><path d="M1055,-35L1040,44L1075,37Z" fill="#867456" stroke="#867456"/><path d="M1055,-35L1075,37L1118,-28Z" fill="#808046" stroke="#808046"/><path d="M1118,-28L1075,37L1126,42Z" fill="#877350" stroke="#877350"/><path d="M1118,-28L1126,42L1170,32Z" fill="#86744c" stroke="#86744c"/><path d="M1118,-28L1170,32L1192,-13Z" fill="#808040" stroke="#808040"/><path d="M1118,-28L1192,-13L1218,-17Z" fill="#808036" stroke="#808036"/><path d="M1118,-28L1218,-17L1319,-38Z" fill="#80802f" stroke="#80802f"/><path d="M1192,-13L1170,32L1221,10Z" fill="#847842" stroke="#847842"/><path d="M1192,-13L1221,10L1218,-17Z" fill="#808039" stroke="#808039"/><path d="M1218,-17L1221,10L1263,20Z" fill="#827c3f" stroke="#827c3f"/><path d="M1218,-17L1263,20L1284,-18Z" fill="#80803a" stroke="#80803a"/><path d="M1218,-17L1284,-18L1319,-38Z" fill="#808030" stroke="#808030"/><path d="M1284,-18L1263,20L1336,26Z" fill="#847942" stroke="#847942"/><path d="M1284,-18L1336,26L1319,-38Z" fill="#808038" stroke="#808038"/><path d="M-18,17L-19,68L11,56Z" fill="#13cc87" stroke="#13cc87"/><path d="M-18,17L11,56L19,29Z" fill="#0fd482" stroke="#0fd482"/><path d="M19,29L11,56L76,70Z" fill="#18c18e" stroke="#18c18e"/><path d="M19,29L76,70L73,17Z" fill="#14c789" stroke="#14c789"/><path d="M73,17L76,70L109,39Z" fill="#18c08e" stroke="#18c08e"/><path d="M109,39L76,70L106,87Z" fill="#23ac9b" stroke="#23ac9b"/><path d="M109,39L106,87L188,66Z" fill="#25a79e" stroke="#25a79e"/><path d="M109,39L188,66L176,29Z" fill="#1fb297" stroke="#1fb297"/><path d="M176,29L188,66L214,36Z" fill="#21ae9a" stroke="#21ae9a"/><path d="M214,36L188,66L216,62Z" fill="#27a3a0" stroke="#27a3a0"/><path d="M214,36L216,62L286,33Z" fill="#25a69e" stroke="#25a69e"/><path d="M286,33L216,62L288,73Z" fill="#2c99a7" stroke="#2c99a7"/><path d="M286,33L288,73L306,77Z" fill="#3090ac" stroke="#3090ac"/><path d="M286,33L306,77L320,26Z" fill="#2b9aa5" stroke="#2b9aa5"/><path d="M320,26L306,77L388,58Z" fill="#318ead" stroke="#318ead"/><path d="M320,26L388,58L375,23Z" fill="#2c99a6" stroke="#2c99a6"/><path d="M375,23L388,58L430,32Z" fill="#3091ab" stroke="#3091ab"/><path d="M430,32L388,58L429,78Z" fill="#3880b6" stroke="#3880b6"/><path d="M430,32L429,78L471,38Z" fill="#3a82b1" stroke="#3a82b1"/><path d="M471,38L429,78L489,58Z" fill="#417ab3" stroke="#417ab3"/><path d="M471,38L489,58L515,17Z" fill="#3e86a5" stroke="#3e86a5"/><path d="M515,17L489,58L571,79Z" fill="#4a79a8" stroke="#4a79a8"/><path d="M515,17L571,79L594,29Z" fill="#4c7d9f" stroke="#4c7d9f"/><path d="M594,29L571,79L623,76Z" fill="#5a6aa5" stroke="#5a6aa5"/><path d="M594,29L623,76L629,22Z" fill="#567699" stroke="#567699"/><path d="M629,22L623,76L677,58Z" fill="#5f6c9a" stroke="#5f6c9a"/><path d="M629,22L677,58L670,7Z" fill="#587c8d" stroke="#587c8d"/><path d="M670,7L677,58L731,22Z" fill="#5e7989" stroke="#5e7989"/><path d="M731,22L677,58L709,71Z" fill="#6a6792" stroke="#6a6792"/><path d="M731,22L709,71L760,59Z" fill="#6f648f" stroke="#6f648f"/><path d="M731,22L760,59L793,38Z" fill="#6f6a86" stroke="#6f6a86"/><path d="M793,38L760,59L806,91Z" fill="#7d558f" stroke="#7d558f"/><path d="M793,38L806,91L869,70Z" fill="#854f8c" stroke="#854f8c"/><path d="M793,38L869,70L814,7Z" fill="#7a647d" stroke="#7a647d"/><path d="M894,12L869,70L936,43Z" fill="#896076" stroke="#896076"/><path d="M936,43L869,70L940,94Z" fill="#974b82" stroke="#974b82"/><path d="M936,43L940,94L970,92Z" fill="#9f4582" stroke="#9f4582"/><path d="M936,43L970,92L963,19Z" fill="#955874" stroke="#955874"/><path d="M963,19L970,92L1040,44Z" fill="#955870" stroke="#955870"/><path d="M1040,44L970,92L1024,95Z" fill="#9f447b" stroke="#9f447b"/><path d="M1040,44L1024,95L1060,62Z" fill="#9b4c72" stroke="#9b4c72"/><path d="M1040,44L1060,62L1075,37Z" fill="#935b66" stroke="#935b66"/><path d="M1075,37L1060,62L1115,79Z" fill="#985269" stroke="#985269"/><path d="M1075,37L1115,79L1126,42Z" fill="#955763" stroke="#955763"/><path d="M1126,42L1115,79L1181,58Z" fill="#985262" stroke="#985262"/><path d="M1126,42L1181,58L1170,32Z" fill="#925e58" stroke="#925e58"/><path d="M1170,32L1181,58L1221,10Z" fill="#8d664f" stroke="#8d664f"/><path d="M1221,10L1181,58L1228,63Z" fill="#915e53" stroke="#915e53"/><path d="M1221,10L1228,63L1263,20Z" fill="#8c684d" stroke="#8c684d"/><path d="M1263,20L1228,63L1268,55Z" fill="#925c54" stroke="#925c54"/><path d="M1263,20L1268,55L1336,26Z" fill="#8d664e" stroke="#8d664e"/><path d="M1336,26L1268,55L1320,78Z" fill="#955758" stroke="#955758"/><path d="M1336,26L1320,78L1332,106Z" fill="#9c4a60" stroke="#9c4a60"/><path d="M1336,26L1332,106L1340,306Z" fill="#d01c54" stroke="#d01c54"/><path d="M-19,68L-42,122L20,114Z" fill="#2aa3a0" stroke="#2aa3a0"/><path d="M-19,68L20,114L11,56Z" fill="#21b199" stroke="#21b199"/><path d="M11,56L20,114L76,70Z" fill="#24ab9c" stroke="#24ab9c"/><path d="M76,70L20,114L56,116Z" fill="#2d99a8" stroke="#2d99a8"/><path d="M76,70L56,116L106,87Z" fill="#2c9ca6" stroke="#2c9ca6"/><path d="M106,87L56,116L86,159Z" fill="#41899f" stroke="#41899f"/><path d="M106,87L86,159L131,138Z" fill="#4a829d" stroke="#4a829d"/><path d="M106,87L131,138L188,66Z" fill="#338daf" stroke="#338daf"/><path d="M188,66L131,138L190,127Z" fill="#3f81ad" stroke="#3f81ad"/><path d="M188,66L190,127L216,62Z" fill="#338daf" stroke="#338daf"/><path d="M216,62L190,127L228,127Z" fill="#3e7db4" stroke="#3e7db4"/><path d="M216,62L228,127L288,73Z" fill="#3784b5" stroke="#3784b5"/><path d="M288,73L228,127L264,131Z" fill="#4772b6" stroke="#4772b6"/><path d="M288,73L264,131L306,77Z" fill="#3d78bc" stroke="#3d78bc"/><path d="M306,77L264,131L322,134Z" fill="#4d6ab8" stroke="#4d6ab8"/><path d="M306,77L322,134L388,58Z" fill="#4073bf" stroke="#4073bf"/><path d="M388,58L322,134L381,143Z" fill="#5061c0" stroke="#5061c0"/><path d="M388,58L381,143L429,78Z" fill="#4667c7" stroke="#4667c7"/><path d="M429,78L381,143L439,131Z" fill="#5955c2" stroke="#5955c2"/><path d="M429,78L439,131L475,114Z" fill="#5657c6" stroke="#5657c6"/><path d="M429,78L475,114L489,58Z" fill="#4c66c0" stroke="#4c66c0"/><path d="M489,58L475,114L505,92Z" fill="#5260bf" stroke="#5260bf"/><path d="M489,58L505,92L571,79Z" fill="#5365b5" stroke="#5365b5"/><path d="M505,92L475,114L529,145Z" fill="#684db9" stroke="#684db9"/><path d="M505,92L529,145L571,79Z" fill="#6350bc" stroke="#6350bc"/><path d="M571,79L529,145L580,125Z" fill="#7148b3" stroke="#7148b3"/><path d="M571,79L580,125L623,76Z" fill="#6751b6" stroke="#6751b6"/><path d="M623,76L580,125L624,132Z" fill="#7645b0" stroke="#7645b0"/><path d="M623,76L624,132L664,129Z" fill="#7c42ac" stroke="#7c42ac"/><path d="M623,76L664,129L677,58Z" fill="#7050ab" stroke="#7050ab"/><path d="M677,58L664,129L709,71Z" fill="#744ea7" stroke="#744ea7"/><path d="M709,71L664,129L739,128Z" fill="#853da6" stroke="#853da6"/><path d="M709,71L739,128L760,59Z" fill="#7e49a1" stroke="#7e49a1"/><path d="M760,59L739,128L806,91Z" fill="#8640a0" stroke="#8640a0"/><path d="M806,91L739,128L787,136Z" fill="#9b3098" stroke="#9b3098"/><path d="M806,91L787,136L825,137Z" fill="#a22c92" stroke="#a22c92"/><path d="M806,91L825,137L869,70Z" fill="#94359b" stroke="#94359b"/><path d="M869,70L825,137L887,140Z" fill="#a72b8f" stroke="#a72b8f"/><path d="M869,70L887,140L916,115Z" fill="#a62f90" stroke="#a62f90"/><path d="M869,70L916,115L940,94Z" fill="#9f388f" stroke="#9f388f"/><path d="M940,94L916,115L964,139Z" fill="#b62b85" stroke="#b62b85"/><path d="M940,94L964,139L970,92Z" fill="#af2f88" stroke="#af2f88"/><path d="M970,92L964,139L1006,109Z" fill="#b42c82" stroke="#b42c82"/><path d="M970,92L1006,109L1024,95Z" fill="#a83487" stroke="#a83487"/><path d="M1024,95L1006,109L1066,155Z" fill="#b92978" stroke="#b92978"/><path d="M1024,95L1066,155L1082,134Z" fill="#c12570" stroke="#c12570"/><path d="M1024,95L1082,134L1060,62Z" fill="#a73580" stroke="#a73580"/><path d="M1060,62L1082,134L1115,79Z" fill="#a53979" stroke="#a53979"/><path d="M1115,79L1082,134L1135,142Z" fill="#b8296f" stroke="#b8296f"/><path d="M1115,79L1135,142L1157,110Z" fill="#b12e71" stroke="#b12e71"/><path d="M1115,79L1157,110L1181,58Z" fill="#a1406d" stroke="#a1406d"/><path d="M1181,58L1157,110L1207,133Z" fill="#a93372" stroke="#a93372"/><path d="M1181,58L1207,133L1228,63Z" fill="#a23f68" stroke="#a23f68"/><path d="M1228,63L1207,133L1267,117Z" fill="#ac316d" stroke="#ac316d"/><path d="M1228,63L1267,117L1268,55Z" fill="#9f4365" stroke="#9f4365"/><path d="M1268,55L1267,117L1320,78Z" fill="#a24067" stroke="#a24067"/><path d="M1320,78L1267,117L1332,106Z" fill="#a93370" stroke="#a93370"/><path d="M-42,122L-28,229L-7,180Z" fill="#6c7e71" stroke="#6c7e71"/><path d="M-42,122L-7,180L20,114Z" fill="#4a8f8a" stroke="#4a8f8a"/><path d="M20,114L-7,180L22,176Z" fill="#5b8381" stroke="#5b8381"/><path d="M20,114L22,176L56,116Z" fill="#4a8a91" stroke="#4a8a91"/><path d="M56,116L22,176L86,159Z" fill="#597f8a" stroke="#597f8a"/><path d="M131,138L86,159L130,193Z" fill="#696f88" stroke="#696f88"/><path d="M131,138L130,193L166,194Z" fill="#766484" stroke="#766484"/><path d="M131,138L166,194L190,127Z" fill="#646c93" stroke="#646c93"/><path d="M190,127L166,194L223,174Z" fill="#71618f" stroke="#71618f"/><path d="M190,127L223,174L228,127Z" fill="#5f699e" stroke="#5f699e"/><path d="M228,127L223,174L264,131Z" fill="#6265a0" stroke="#6265a0"/><path d="M264,131L223,174L271,195Z" fill="#775794" stroke="#775794"/><path d="M264,131L271,195L306,189Z" fill="#7e5093" stroke="#7e5093"/><path d="M264,131L306,189L322,134Z" fill="#6d57a1" stroke="#6d57a1"/><path d="M322,134L306,189L378,183Z" fill="#7f499a" stroke="#7f499a"/><path d="M322,134L378,183L381,143Z" fill="#744ca6" stroke="#744ca6"/><path d="M381,143L378,183L443,176Z" fill="#833fa2" stroke="#833fa2"/><path d="M381,143L443,176L439,131Z" fill="#7645af" stroke="#7645af"/><path d="M439,131L443,176L475,114Z" fill="#7346b1" stroke="#7346b1"/><path d="M475,114L443,176L482,193Z" fill="#883aa3" stroke="#883aa3"/><path d="M475,114L482,193L528,155Z" fill="#873ba4" stroke="#873ba4"/><path d="M475,114L528,155L529,145Z" fill="#7c41ac" stroke="#7c41ac"/><path d="M529,145L528,155L556,177Z" fill="#93349b" stroke="#93349b"/><path d="M529,145L556,177L580,125Z" fill="#8d389f" stroke="#8d389f"/><path d="M580,125L556,177L619,172Z" fill="#9a3096" stroke="#9a3096"/><path d="M580,125L619,172L624,132Z" fill="#92359d" stroke="#92359d"/><path d="M624,132L619,172L673,163Z" fill="#a22c91" stroke="#a22c91"/><path d="M624,132L673,163L664,129Z" fill="#983199" stroke="#983199"/><path d="M664,129L673,163L739,128Z" fill="#9e2e94" stroke="#9e2e94"/><path d="M739,128L673,163L741,191Z" fill="#b52185" stroke="#b52185"/><path d="M739,128L741,191L759,166Z" fill="#bb1e81" stroke="#bb1e81"/><path d="M739,128L759,166L787,136Z" fill="#ad258a" stroke="#ad258a"/><path d="M787,136L759,166L817,169Z" fill="#be1c7e" stroke="#be1c7e"/><path d="M787,136L817,169L825,137Z" fill="#ba1e82" stroke="#ba1e82"/><path d="M825,137L817,169L887,140Z" fill="#c11b7d" stroke="#c11b7d"/><path d="M887,140L817,169L885,189Z" fill="#d41170" stroke="#d41170"/><path d="M887,140L885,189L925,170Z" fill="#da116b" stroke="#da116b"/><path d="M887,140L925,170L916,115Z" fill="#c71e79" stroke="#c71e79"/><path d="M916,115L925,170L964,139Z" fill="#cb1e77" stroke="#cb1e77"/><path d="M964,139L925,170L970,161Z" fill="#da166b" stroke="#da166b"/><path d="M964,139L970,161L1006,109Z" fill="#c82074" stroke="#c82074"/><path d="M1006,109L970,161L1038,185Z" fill="#d51968" stroke="#d51968"/><path d="M1006,109L1038,185L1066,155Z" fill="#d31a65" stroke="#d31a65"/><path d="M1082,134L1066,155L1125,179Z" fill="#d9165b" stroke="#d9165b"/><path d="M1082,134L1125,179L1135,142Z" fill="#d5195b" stroke="#d5195b"/><path d="M1135,142L1125,179L1158,174Z" fill="#e1124f" stroke="#e1124f"/><path d="M1135,142L1158,174L1157,110Z" fill="#cd1e5c" stroke="#cd1e5c"/><path d="M1157,110L1158,174L1207,133Z" fill="#ca1f5b" stroke="#ca1f5b"/><path d="M1207,133L1158,174L1231,193Z" fill="#e21147" stroke="#e21147"/><path d="M1207,133L1231,193L1271,173Z" fill="#e21147" stroke="#e21147"/><path d="M1207,133L1271,173L1267,117Z" fill="#cc1e57" stroke="#cc1e57"/><path d="M1267,117L1271,173L1316,183Z" fill="#da164d" stroke="#da164d"/><path d="M1267,117L1316,183L1332,106Z" fill="#c7215a" stroke="#c7215a"/><path d="M1332,106L1316,183L1335,280Z" fill="#f60539" stroke="#f60539"/><path d="M1332,106L1335,280L1340,306Z" fill="#ff0020" stroke="#ff0020"/><path d="M-7,180L-28,229L30,222Z" fill="#806f5f" stroke="#806f5f"/><path d="M-7,180L30,222L22,176Z" fill="#7a706c" stroke="#7a706c"/><path d="M22,176L30,222L57,213Z" fill="#836967" stroke="#836967"/><path d="M22,176L57,213L86,159Z" fill="#756f76" stroke="#756f76"/><path d="M86,159L57,213L130,193Z" fill="#7d6676" stroke="#7d6676"/><path d="M130,193L57,213L132,216Z" fill="#885e6c" stroke="#885e6c"/><path d="M130,193L132,216L161,215Z" fill="#8b586f" stroke="#8b586f"/><path d="M130,193L161,215L166,194Z" fill="#8c5675" stroke="#8c5675"/><path d="M166,194L161,215L244,206Z" fill="#8f5076" stroke="#8f5076"/><path d="M166,194L244,206L223,174Z" fill="#895180" stroke="#895180"/><path d="M223,174L244,206L271,195Z" fill="#8c4b83" stroke="#8c4b83"/><path d="M271,195L244,206L279,206Z" fill="#95447f" stroke="#95447f"/><path d="M271,195L279,206L306,189Z" fill="#944284" stroke="#944284"/><path d="M306,189L279,206L327,241Z" fill="#983e7d" stroke="#983e7d"/><path d="M306,189L327,241L366,219Z" fill="#9a397d" stroke="#9a397d"/><path d="M306,189L366,219L378,183Z" fill="#99388b" stroke="#99388b"/><path d="M378,183L366,219L435,214Z" fill="#9f308a" stroke="#9f308a"/><path d="M378,183L435,214L443,176Z" fill="#993095" stroke="#993095"/><path d="M443,176L435,214L465,207Z" fill="#a5298e" stroke="#a5298e"/><path d="M443,176L465,207L482,193Z" fill="#a22b90" stroke="#a22b90"/><path d="M482,193L465,207L516,209Z" fill="#ad2486" stroke="#ad2486"/><path d="M482,193L516,209L528,155Z" fill="#a5298e" stroke="#a5298e"/><path d="M528,155L516,209L556,177Z" fill="#a52a8f" stroke="#a52a8f"/><path d="M556,177L516,209L585,244Z" fill="#b91e7b" stroke="#b91e7b"/><path d="M556,177L585,244L619,172Z" fill="#bd1b7e" stroke="#bd1b7e"/><path d="M619,172L585,244L643,236Z" fill="#c5176f" stroke="#c5176f"/><path d="M619,172L643,236L673,163Z" fill="#c1197c" stroke="#c1197c"/><path d="M673,163L643,236L686,230Z" fill="#ce126d" stroke="#ce126d"/><path d="M673,163L686,230L721,223Z" fill="#d3106c" stroke="#d3106c"/><path d="M673,163L721,223L741,191Z" fill="#cf1272" stroke="#cf1272"/><path d="M741,191L721,223L779,231Z" fill="#dc0a60" stroke="#dc0a60"/><path d="M741,191L779,231L759,166Z" fill="#db0b6a" stroke="#db0b6a"/><path d="M759,166L779,231L817,169Z" fill="#d90c6c" stroke="#d90c6c"/><path d="M817,169L779,231L812,232Z" fill="#e6055c" stroke="#e6055c"/><path d="M817,169L812,232L862,218Z" fill="#eb025b" stroke="#eb025b"/><path d="M817,169L862,218L885,189Z" fill="#e90461" stroke="#e90461"/><path d="M885,189L862,218L918,218Z" fill="#f60053" stroke="#f60053"/><path d="M885,189L918,218L925,170Z" fill="#f3045a" stroke="#f3045a"/><path d="M925,170L918,218L980,215Z" fill="#ff0051" stroke="#ff0051"/><path d="M925,170L980,215L970,161Z" fill="#f0095b" stroke="#f0095b"/><path d="M970,161L980,215L1015,210Z" fill="#fb034f" stroke="#fb034f"/><path d="M970,161L1015,210L1038,185Z" fill="#f20853" stroke="#f20853"/><path d="M1038,185L1015,210L1087,233Z" fill="#ff0040" stroke="#ff0040"/><path d="M1038,185L1087,233L1066,155Z" fill="#f70549" stroke="#f70549"/><path d="M1066,155L1087,233L1125,179Z" fill="#f60646" stroke="#f60646"/><path d="M1125,179L1087,233L1133,208Z" fill="#ff0039" stroke="#ff0039"/><path d="M1125,179L1133,208L1158,174Z" fill="#f40742" stroke="#f40742"/><path d="M1158,174L1133,208L1184,244Z" fill="#ff0032" stroke="#ff0032"/><path d="M1158,174L1184,244L1231,193Z" fill="#ff0032" stroke="#ff0032"/><path d="M1231,193L1184,244L1237,236Z" fill="#ff0024" stroke="#ff0024"/><path d="M1231,193L1237,236L1280,227Z" fill="#ff0027" stroke="#ff0027"/><path d="M1231,193L1280,227L1271,173Z" fill="#fd0134" stroke="#fd0134"/><path d="M1271,173L1280,227L1316,183Z" fill="#fa0336" stroke="#fa0336"/><path d="M1316,183L1280,227L1319,238Z" fill="#ff0029" stroke="#ff0029"/><path d="M1316,183L1319,238L1335,280Z" fill="#ff001e" stroke="#ff001e"/><path d="M-28,229L-11,327L-17,255Z" fill="#807239" stroke="#807239"/><path d="M-28,229L-17,255L30,222Z" fill="#807050" stroke="#807050"/><path d="M30,222L-17,255L15,286Z" fill="#806d46" stroke="#806d46"/><path d="M30,222L15,286L75,279Z" fill="#836844" stroke="#836844"/><path d="M30,222L75,279L57,213Z" fill="#846654" stroke="#846654"/><path d="M57,213L75,279L119,264Z" fill="#86614f" stroke="#86614f"/><path d="M57,213L119,264L132,216Z" fill="#885e5d" stroke="#885e5d"/><path d="M132,216L119,264L161,215Z" fill="#8b5960" stroke="#8b5960"/><path d="M161,215L119,264L157,283Z" fill="#8b5753" stroke="#8b5753"/><path d="M161,215L157,283L233,267Z" fill="#8f5157" stroke="#8f5157"/><path d="M161,215L233,267L244,206Z" fill="#914d69" stroke="#914d69"/><path d="M244,206L233,267L260,274Z" fill="#934760" stroke="#934760"/><path d="M244,206L260,274L279,206Z" fill="#95456e" stroke="#95456e"/><path d="M279,206L260,274L327,241Z" fill="#97406a" stroke="#97406a"/><path d="M327,241L260,274L338,266Z" fill="#993d60" stroke="#993d60"/><path d="M327,241L338,266L366,219Z" fill="#9b386f" stroke="#9b386f"/><path d="M366,219L338,266L379,285Z" fill="#9d3567" stroke="#9d3567"/><path d="M366,219L379,285L435,214Z" fill="#9f3075" stroke="#9f3075"/><path d="M435,214L379,285L420,294Z" fill="#a12d68" stroke="#a12d68"/><path d="M435,214L420,294L486,291Z" fill="#a62865" stroke="#a62865"/><path d="M435,214L486,291L465,207Z" fill="#a92775" stroke="#a92775"/><path d="M465,207L486,291L522,267Z" fill="#ae2467" stroke="#ae2467"/><path d="M465,207L522,267L516,209Z" fill="#b02376" stroke="#b02376"/><path d="M516,209L522,267L585,244Z" fill="#b71f6a" stroke="#b71f6a"/><path d="M585,244L522,267L579,276Z" fill="#bb1d5a" stroke="#bb1d5a"/><path d="M585,244L579,276L606,268Z" fill="#c01a56" stroke="#c01a56"/><path d="M585,244L606,268L643,236Z" fill="#c4185c" stroke="#c4185c"/><path d="M643,236L606,268L666,263Z" fill="#c91554" stroke="#c91554"/><path d="M643,236L666,263L686,230Z" fill="#cd1259" stroke="#cd1259"/><path d="M686,230L666,263L705,280Z" fill="#d1104e" stroke="#d1104e"/><path d="M686,230L705,280L721,223Z" fill="#d40f53" stroke="#d40f53"/><path d="M721,223L705,280L786,257Z" fill="#da0b4a" stroke="#da0b4a"/><path d="M721,223L786,257L779,231Z" fill="#df0951" stroke="#df0951"/><path d="M779,231L786,257L812,232Z" fill="#e4064b" stroke="#e4064b"/><path d="M812,232L786,257L817,282Z" fill="#e7043f" stroke="#e7043f"/><path d="M812,232L817,282L862,218Z" fill="#eb0244" stroke="#eb0244"/><path d="M862,218L817,282L882,277Z" fill="#f00038" stroke="#f00038"/><path d="M862,218L882,277L918,218Z" fill="#f60041" stroke="#f60041"/><path d="M918,218L882,277L914,271Z" fill="#f90034" stroke="#f90034"/><path d="M918,218L914,271L988,258Z" fill="#ff0034" stroke="#ff0034"/><path d="M918,218L988,258L980,215Z" fill="#ff003d" stroke="#ff003d"/><path d="M980,215L988,258L1015,210Z" fill="#ff003a" stroke="#ff003a"/><path d="M1015,210L988,258L1032,286Z" fill="#ff002a" stroke="#ff002a"/><path d="M1015,210L1032,286L1065,273Z" fill="#ff0024" stroke="#ff0024"/><path d="M1015,210L1065,273L1087,233Z" fill="#ff002d" stroke="#ff002d"/><path d="M1087,233L1065,273L1121,270Z" fill="#ff001c" stroke="#ff001c"/><path d="M1087,233L1121,270L1133,208Z" fill="#ff0027" stroke="#ff0027"/><path d="M1133,208L1121,270L1184,244Z" fill="#ff0020" stroke="#ff0020"/><path d="M1184,244L1121,270L1183,260Z" fill="#ff0014" stroke="#ff0014"/><path d="M1184,244L1183,260L1216,267Z" fill="#ff0010" stroke="#ff0010"/><path d="M1184,244L1216,267L1237,236Z" fill="#ff0015" stroke="#ff0015"/><path d="M1237,236L1216,267L1282,270Z" fill="#ff0010" stroke="#ff0010"/><path d="M1237,236L1282,270L1280,227Z" fill="#ff0018" stroke="#ff0018"/><path d="M1280,227L1282,270L1319,238Z" fill="#ff0017" stroke="#ff0017"/><path d="M1319,238L1282,270L1335,280Z" fill="#ff000d" stroke="#ff000d"/><path d="M-17,255L-11,327L15,286Z" fill="#806f33" stroke="#806f33"/><path d="M15,286L-11,327L36,321Z" fill="#816d35" stroke="#816d35"/><path d="M15,286L36,321L75,279Z" fill="#836837" stroke="#836837"/><path d="M75,279L36,321L76,332Z" fill="#85653a" stroke="#85653a"/><path d="M75,279L76,332L139,329Z" fill="#885f3d" stroke="#885f3d"/><path d="M75,279L139,329L119,264Z" fill="#895d3e" stroke="#895d3e"/><path d="M119,264L139,329L157,305Z" fill="#8b5941" stroke="#8b5941"/><path d="M119,264L157,305L157,283Z" fill="#8b5842" stroke="#8b5842"/><path d="M157,283L157,305L209,309Z" fill="#8e5345" stroke="#8e5345"/><path d="M157,283L209,309L233,267Z" fill="#904f47" stroke="#904f47"/><path d="M233,267L209,309L260,274Z" fill="#93494b" stroke="#93494b"/><path d="M260,274L209,309L274,341Z" fill="#94474c" stroke="#94474c"/><path d="M260,274L274,341L320,341Z" fill="#974150" stroke="#974150"/><path d="M260,274L320,341L338,266Z" fill="#983e52" stroke="#983e52"/><path d="M338,266L320,341L364,342Z" fill="#9b3855" stroke="#9b3855"/><path d="M338,266L364,342L379,285Z" fill="#9d3557" stroke="#9d3557"/><path d="M379,285L364,342L420,294Z" fill="#9f305a" stroke="#9f305a"/><path d="M420,294L364,342L432,330Z" fill="#a02e5c" stroke="#a02e5c"/><path d="M420,294L432,330L486,291Z" fill="#a6285b" stroke="#a6285b"/><path d="M486,291L432,330L466,341Z" fill="#a92759" stroke="#a92759"/><path d="M486,291L466,341L538,325Z" fill="#af2355" stroke="#af2355"/><path d="M486,291L538,325L522,267Z" fill="#b22253" stroke="#b22253"/><path d="M522,267L538,325L562,323Z" fill="#b71f50" stroke="#b71f50"/><path d="M522,267L562,323L579,276Z" fill="#b91e4e" stroke="#b91e4e"/><path d="M579,276L562,323L626,328Z" fill="#c01a4a" stroke="#c01a4a"/><path d="M579,276L626,328L606,268Z" fill="#c21948" stroke="#c21948"/><path d="M606,268L626,328L659,319Z" fill="#c71645" stroke="#c71645"/><path d="M606,268L659,319L666,263Z" fill="#ca1543" stroke="#ca1543"/><path d="M666,263L659,319L705,280Z" fill="#d0113f" stroke="#d0113f"/><path d="M705,280L659,319L731,334Z" fill="#d30f3d" stroke="#d30f3d"/><path d="M705,280L731,334L786,257Z" fill="#db0b38" stroke="#db0b38"/><path d="M786,257L731,334L763,340Z" fill="#df0935" stroke="#df0935"/><path d="M786,257L763,340L817,282Z" fill="#e40632" stroke="#e40632"/><path d="M817,282L763,340L822,337Z" fill="#e60530" stroke="#e60530"/><path d="M817,282L822,337L860,310Z" fill="#ec022c" stroke="#ec022c"/><path d="M817,282L860,310L882,277Z" fill="#ef002a" stroke="#ef002a"/><path d="M882,277L860,310L914,321Z" fill="#f50026" stroke="#f50026"/><path d="M882,277L914,321L914,271Z" fill="#f80024" stroke="#f80024"/><path d="M914,271L914,321L975,315Z" fill="#fe0020" stroke="#fe0020"/><path d="M914,271L975,315L988,258Z" fill="#ff001e" stroke="#ff001e"/><path d="M988,258L975,315L1032,286Z" fill="#ff0018" stroke="#ff0018"/><path d="M1032,286L975,315L1018,334Z" fill="#ff0017" stroke="#ff0017"/><path d="M1032,286L1018,334L1077,328Z" fill="#ff0013" stroke="#ff0013"/><path d="M1032,286L1077,328L1065,273Z" fill="#ff0011" stroke="#ff0011"/><path d="M1065,273L1077,328L1121,270Z" fill="#ff000e" stroke="#ff000e"/><path d="M1121,270L1077,328L1125,338Z" fill="#ff000b" stroke="#ff000b"/><path d="M1121,270L1125,338L1160,318Z" fill="#ff0008" stroke="#ff0008"/><path d="M1121,270L1160,318L1183,260Z" fill="#ff0006" stroke="#ff0006"/><path d="M1183,260L1160,318L1216,267Z" fill="#ff0002" stroke="#ff0002"/><path d="M1216,267L1160,318L1239,338Z" fill="#ff0000" stroke="#ff0000"/><path d="M1216,267L1239,338L1267,333Z" fill="#ff0000" stroke="#ff0000"/><path d="M1216,267L1267,333L1282,270Z" fill="#ff0000" stroke="#ff0000"/><path d="M1282,270L1267,333L1340,306Z" fill="#ff0000" stroke="#ff0000"/><path d="M1282,270L1340,306L1335,280Z" fill="#ff0000" stroke="#ff0000"/><path d="M-11,327L76,332L36,321Z" fill="#826937" stroke="#826937"/><path d="M76,332L274,341L139,329Z" fill="#8d5544" stroke="#8d5544"/><path d="M139,329L274,341L209,309Z" fill="#904d48" stroke="#904d48"/><path d="M139,329L209,309L157,305Z" fill="#8d5444" stroke="#8d5444"/><path d="M274,341L364,342L320,341Z" fill="#993b53" stroke="#993b53"/><path d="M364,342L1239,338L763,340Z" fill="#e40632" stroke="#e40632"/><path d="M364,342L763,340L466,341Z" fill="#b52051" stroke="#b52051"/><path d="M364,342L466,341L432,330Z" fill="#a22b5d" stroke="#a22b5d"/><path d="M466,341L763,340L626,328Z" fill="#c51746" stroke="#c51746"/><path d="M466,341L626,328L538,325Z" fill="#b71f4f" stroke="#b71f4f"/><path d="M538,325L626,328L562,323Z" fill="#bd1b4b" stroke="#bd1b4b"/><path d="M626,328L763,340L731,334Z" fill="#d50e3c" stroke="#d50e3c"/><path d="M626,328L731,334L659,319Z" fill="#cf1240" stroke="#cf1240"/><path d="M763,340L1239,338L1125,338Z" fill="#ff0013" stroke="#ff0013"/><path d="M763,340L1125,338L822,337Z" fill="#f80024" stroke="#f80024"/><path d="M822,337L1125,338L1018,334Z" fill="#ff001a" stroke="#ff001a"/><path d="M822,337L1018,334L914,321Z" fill="#fb0022" stroke="#fb0022"/><path d="M822,337L914,321L860,310Z" fill="#f20029" stroke="#f20029"/><path d="M914,321L1018,334L975,315Z" fill="#ff001c" stroke="#ff001c"/><path d="M1018,334L1125,338L1077,328Z" fill="#ff000f" stroke="#ff000f"/><path d="M1125,338L1239,338L1160,318Z" fill="#ff0003" stroke="#ff0003"/></g></svg>